<?xml version="1.0" encoding="UTF-8" standalone="no"?>
<!-- Created with Inkscape (http://www.inkscape.org/) -->

<svg
   width="64"
   height="64"
   viewBox="0 0 16.933333 16.933333"
   version="1.1"
   id="svg1"
   xml:space="preserve"
   inkscape:version="1.3.2 (091e20e, 2023-11-25, custom)"
   sodipodi:docname="bone-dark-gray-2.svg"
   inkscape:export-filename="bone-dark-gray-2.svg"
   inkscape:export-xdpi="96"
   inkscape:export-ydpi="96"
   xmlns:inkscape="http://www.inkscape.org/namespaces/inkscape"
   xmlns:sodipodi="http://sodipodi.sourceforge.net/DTD/sodipodi-0.dtd"
   xmlns="http://www.w3.org/2000/svg"
   xmlns:svg="http://www.w3.org/2000/svg"><sodipodi:namedview
     id="namedview1"
     pagecolor="#ffffff"
     bordercolor="#000000"
     borderopacity="0.25"
     inkscape:showpageshadow="2"
     inkscape:pageopacity="0.0"
     inkscape:pagecheckerboard="0"
     inkscape:deskcolor="#d1d1d1"
     inkscape:document-units="mm"
     inkscape:zoom="8.1941057"
     inkscape:cx="60.409277"
     inkscape:cy="31.302989"
     inkscape:window-width="1920"
     inkscape:window-height="1009"
     inkscape:window-x="1912"
     inkscape:window-y="-8"
     inkscape:window-maximized="1"
     inkscape:current-layer="layer1"
     showgrid="false"><inkscape:grid
       id="grid5"
       units="mm"
       originx="0"
       originy="0"
       spacingx="0.99999998"
       spacingy="0.99999998"
       empcolor="#0099e5"
       empopacity="0.30196078"
       color="#0099e5"
       opacity="0.14901961"
       empspacing="5"
       dotted="false"
       gridanglex="30"
       gridanglez="30"
       visible="false" /></sodipodi:namedview><defs
     id="defs1" /><g
     inkscape:label="Layer 1"
     inkscape:groupmode="layer"
     id="layer1"><path color="#000000" fill="#8f8f8f" fill-rule="evenod" stroke-linecap="round" stroke-linejoin="round"-inkscape-stroke"none" paint-order="markers" fill="stroke" d="M 11.044922,1.2851562 C 10.313811,1.2312912 9.8290881,1.6813687 9.6023336,2.3140135 8.2010449,2.2925278 6.9329591,2.5506641 5.8046875,3.3320313 4.357121,4.3345212 3.3446884,6.1378998 3.078125,8.8730469 1.8644045,10.094876 1.8119488,10.152729 0.25585938,11.8125 c -0.0131405,0.0145 -0.0249095,0.0302 -0.0351563,0.04687 -0.27136245,0.428367 -0.2759652,0.929617 -0.0996094,1.337891 0.17635582,0.408273 0.51859869,0.738647 0.95117182,0.914062 0.4325732,0.175415 0.9625694,0.187114 1.4707032,-0.05469 0.4349974,-0.206999 0.8216636,-0.690134 1.1738281,-1.277344 1.3205046,0.201186 2.1081103,0.858804 2.8164062,1.53125 0.3672791,0.348689 0.7141668,0.69613 1.1210938,0.957031 0.406927,0.260901 0.8884208,0.426926 1.4492187,0.373047 C 10.19317,15.535933 11.194963,14.853192 12,14.09375 c 0.737831,-0.696043 1.241405,-1.419505 1.539063,-1.955078 1.034382,0.04569 1.920567,0.13736 2.582031,-0.337891 0.348609,-0.25047 0.587662,-0.656615 0.707031,-1.208984 0.119264,-0.551882 0.134788,-1.2622307 0.05664,-2.2128907 C 16.669735,5.5741336 14.969425,3.466998 12.369882,2.681201 12.397127,2.4108259 12.193524,1.3407452 11.044922,1.2851562 Z m -0.0293,0.6328125 c 0.501723,0.045506 0.664932,0.3400075 0.675783,0.6484376 C 11.17353,2.4699618 10.782708,2.40774 10.322266,2.3730503 10.343019,2.0886811 10.639407,1.8823107 11.015622,1.9179687 Z M 8.3691406,2.9921875 c 0.8035877,-0.1317972 1.6608214,-0.1185859 2.5312504,0.00977 0.0045,7.492e-4 0.0091,0.0014 0.01367,0.00195 3.129021,0.3342095 5.108242,2.400952 5.339843,5.421875 -2e-6,6.5e-4 -2e-6,0.0013 0,0.00195 0.07556,0.9176075 0.05269,1.5795785 -0.04492,2.0312495 -0.09761,0.451672 -0.253082,0.679638 -0.457031,0.826172 -0.407898,0.293068 -1.216926,0.258847 -2.34375,0.216797 -0.123833,-0.0047 -0.239041,0.06322 -0.294922,0.173828 -0.214331,0.426362 -0.800216,1.250821 -1.548828,1.957034 -0.748612,0.706212 -1.6646474,1.294629 -2.5214842,1.376953 C 8.6305221,15.049392 8.3216239,14.943088 7.9960937,14.734375 7.6705636,14.525662 7.3422532,14.204208 6.96875,13.849609 6.2217436,13.140412 5.2662506,12.300813 3.6699219,12.107422 2.6101093,11.981556 1.9687384,12.07031 1.5683594,12.214844 c -0.2001895,0.07227 -0.3406032,0.160268 -0.4335938,0.240234 -0.09299,0.07997 -0.15429685,0.183594 -0.15429685,0.183594 -0.0809841,0.155323 -0.0206283,0.346887 0.13476565,0.427734 0.1553226,0.08098 0.3468867,0.02063 0.4277343,-0.134765 0,0 -0.02463,0.03012 0.00586,0.0039 0.03049,-0.02622 0.098698,-0.07602 0.234375,-0.125 0.1691931,-0.06108 0.7043155,-0.03752 1.1289063,-0.04492 -0.2171714,0.262927 -0.432573,0.61882 -0.6425787,0.718754 C 1.917319,13.651979 1.5900747,13.638743 1.3105469,13.525391 1.0310191,13.412038 0.80841775,13.189071 0.703125,12.945313 0.59920358,12.704729 0.60240616,12.45767 0.75585937,12.208984 2.2840236,10.578833 2.3138633,10.538055 3.5839844,9.2597656 3.6364845,9.2074013 3.6689669,9.1382897 3.6757813,9.0644531 3.905612,6.3654481 4.8613702,4.7537221 6.1640625,3.8515625 6.8154086,3.4004827 7.5655529,3.1239847 8.3691406,2.9921875 Z m -1.46875,5.4121094 C 5.5354054,8.2401367 4.2246094,8.4160156 4.2246094,8.4160156 4.0516888,8.4395647 3.9303329,8.5984624 3.953125,8.7714844 c 0.022577,0.1737112 0.1817784,0.296174 0.3554687,0.2734375 0,0 1.234414,-0.1504221 2.4785157,-0.00977 1.8466435,0.7756604 5.6113286,2.7851571 5.6113286,2.7851571 0.154237,0.0832 0.34672,0.02546 0.429687,-0.128907 0.0829,-0.154753 0.02423,-0.347413 -0.130859,-0.429687 0,0 -3.802434,-2.0391931 -5.712891,-2.833985 C 6.957593,8.416087 6.929332,8.4082 6.900391,8.404293 Z" /></g></svg>
