<?xml version="1.0" encoding="UTF-8" standalone="no"?>
<!-- Created with Inkscape (http://www.inkscape.org/) -->

<svg
   width="64"
   height="64"
   viewBox="0 0 16.933333 16.933333"
   version="1.1"
   id="svg1"
   xml:space="preserve"
   inkscape:version="1.3.2 (091e20e, 2023-11-25, custom)"
   sodipodi:docname="bone-dark-gray-2.svg"
   inkscape:export-filename="bone-dark-gray-2.svg"
   inkscape:export-xdpi="96"
   inkscape:export-ydpi="96"
   xmlns:inkscape="http://www.inkscape.org/namespaces/inkscape"
   xmlns:sodipodi="http://sodipodi.sourceforge.net/DTD/sodipodi-0.dtd"
   xmlns="http://www.w3.org/2000/svg"
   xmlns:svg="http://www.w3.org/2000/svg"><sodipodi:namedview
     id="namedview1"
     pagecolor="#ffffff"
     bordercolor="#000000"
     borderopacity="0.25"
     inkscape:showpageshadow="2"
     inkscape:pageopacity="0.0"
     inkscape:pagecheckerboard="0"
     inkscape:deskcolor="#d1d1d1"
     inkscape:document-units="mm"
     inkscape:zoom="8.1941057"
     inkscape:cx="28.252015"
     inkscape:cy="38.015131"
     inkscape:window-width="1920"
     inkscape:window-height="1009"
     inkscape:window-x="1912"
     inkscape:window-y="-8"
     inkscape:window-maximized="1"
     inkscape:current-layer="layer1" /><defs
     id="defs1" /><g
     inkscape:label="Layer 1"
     inkscape:groupmode="layer"
     id="layer1"><path
       id="path1"
       style="fill:none;stroke:#8f8f8f;stroke-width:0.634;stroke-dasharray:none;stroke-opacity:1;paint-order:fill markers stroke"
       d="m 10.046975,2.6280668 c 0,0 -0.210656,-1.083779 0.983242,-1.0259944 1.193895,0.057781 0.876369,1.2397459 0.876369,1.2397459 M 4.2666629,8.7308162 c 0,0 1.2813066,-0.1689522 2.5954541,-0.010906 1.869891,0.7779156 5.685716,2.8214798 5.685716,2.8214798 m -9.0666469,0.862173 c -1.8606463,-0.31252 -2.220306,0.382153 -2.220306,0.382153 M 3.3596473,9.0371342 C 3.8303022,3.5100231 7.35867,2.1599901 10.947034,2.6891223 c 3.255847,0.3477557 5.380957,2.562302 5.622524,5.7132134 0.307884,3.7390633 -0.938586,3.4992563 -3.174003,3.4158393 -0.484301,0.9634 -2.376205,3.319504 -4.322698,3.50652 -1.9464914,0.18701 -2.4316063,-2.53735 -5.4411497,-2.901949 -1.4527688,2.88498 -4.0058027,0.967804 -3.1437795,-0.392969 1.5875108,-1.693286 1.5848914,-1.697539 2.8717195,-2.9926428 z" /></g></svg>
