<?xml version="1.0" encoding="UTF-8" standalone="no"?>
<svg width="64" height="64" viewBox="0 0 64 64" fill="none" xmlns="http://www.w3.org/2000/svg"><mask id="path-2-outside-1_309_917" maskUnits="userSpaceOnUse" x="19.814" y="21.75" width="61" height="61" fill="#000000"><rect fill="#ffffff" x="19.813999" y="21.75" width="61" height="61" id="rect2" /><path d="m 47.1365,22.5097 c -6.66,0.8605 -12.4018,3.6862 -16.9929,8.384 -1.4528,1.4768 -2.2316,2.4419 -3.3706,4.1745 -1.6273,2.442 -2.9174,5.3723 -3.638,8.2561 -0.6509,2.5931 -0.802,3.9536 -0.7904,7.0933 0,2.4419 0.2673,7.1165 0.4533,8.1397 0.0581,0.314 0.0232,0.3721 -0.3254,0.5466 -0.6161,0.2907 -1.0694,0.7209 -1.3483,1.3023 -0.5463,1.0815 -0.5463,1.035 1.4645,9.9771 2.0689,9.2212 1.9991,9.0235 3.1498,9.7096 0.8834,0.5349 1.4296,0.5814 2.9058,0.2791 0.9298,-0.1977 1.232,-0.2326 1.2785,-0.1163 0.1046,0.314 0.8717,1.0349 1.3367,1.2558 0.7322,0.3605 1.7666,0.314 3.8588,-0.1511 2.0108,-0.4535 2.2781,-0.5698 2.8825,-1.2326 0.5811,-0.6396 0.7787,-1.1512 0.7787,-1.9536 0,-0.8605 -4.5446,-21.1983 -4.8816,-21.8611 C 33.5608,55.6619 32.7937,55.034 32.0266,54.813 31.457,54.6502 31.2943,54.6502 30.4923,54.8014 l -0.8833,0.1628 -0.1046,-1.1047 c -0.1744,-2.0582 -0.1046,-6.349 0.1162,-7.5351 1.1391,-6.0816 4.6841,-11.1515 9.9958,-14.3376 3.6148,-2.1629 8.1942,-3.2327 12.425,-2.9071 7.7177,0.5814 14.3777,5.035 17.6437,11.8027 1.7086,3.535 2.22,6.4653 1.9759,11.2794 -0.0697,1.4652 -0.1511,2.6978 -0.1743,2.7443 -0.0349,0.0349 -0.4533,-0.0117 -0.9531,-0.1047 -0.8136,-0.1512 -0.9647,-0.1512 -1.5458,0.0116 -0.7672,0.221 -1.5343,0.8489 -1.8714,1.5001 -0.337,0.6628 -4.8816,21.0006 -4.8816,21.8611 0,0.7675 0.1976,1.2908 0.6974,1.8722 0.6044,0.6744 1.046,0.8721 2.9522,1.3023 2.1386,0.4768 3.1382,0.5233 3.8705,0.1628 0.4649,-0.2209 1.232,-0.9418 1.3366,-1.2558 0.0465,-0.1163 0.3487,-0.0814 1.2785,0.1163 1.4762,0.3023 2.0225,0.2558 2.9058,-0.2791 1.1391,-0.6861 1.0926,-0.5117 3.1033,-9.4189 1.9992,-8.8724 2.0573,-9.2328 1.5227,-10.2561 -0.2674,-0.5117 -0.7904,-1.0233 -1.4413,-1.3954 -0.1743,-0.1047 -0.186,-0.2326 -0.0697,-1.3954 0.4533,-4.7211 0.4649,-9.7445 0.0116,-12.2678 -1.8481,-10.4539 -9.5657,-18.9425 -19.9335,-21.9426 -2.5222,-0.7209 -4.4051,-0.9884 -7.4387,-1.0349 -1.79,-0.0233 -3.0685,0.0116 -3.8937,0.1279 z m 6.8227,1.5117 c 10.2399,1.3372 18.713,8.163 21.9675,17.675 1.3831,4.0931 1.6388,7.6048 1.0693,14.826 -0.1627,2.0815 -0.1627,2.0815 -0.6509,1.9535 -0.3254,-0.0814 -0.3835,-0.1511 -0.3835,-0.4418 0,-0.9419 -1.0345,-2.1745 -2.1038,-2.4885 -0.3371,-0.1046 -0.6858,-0.186 -0.7671,-0.186 -0.1279,0 -0.1511,-0.1512 -0.1046,-0.6745 0.1627,-1.7791 0.1976,-2.4652 0.1859,-4.6164 0,-1.4884 -0.0581,-2.7443 -0.1743,-3.4768 -0.5463,-3.5699 -1.9643,-7.0119 -4.0913,-9.8957 -1.0345,-1.3954 -3.5567,-3.8838 -4.9165,-4.849 -3.115,-2.2094 -6.5438,-3.5815 -10.2632,-4.1048 -1.5807,-0.2209 -4.7305,-0.2209 -6.3694,0.0117 -9.4611,1.314 -17.1904,8.4653 -19.0385,17.5703 -0.4998,2.4419 -0.5579,4.1745 -0.2789,8.7793 0.0581,1.0582 0.0465,1.2559 -0.1046,1.2559 -0.093,0 -0.4301,0.0814 -0.7555,0.1744 -1.0577,0.314 -2.127,1.5582 -2.127,2.4884 0,0.3373 -0.1628,0.4768 -0.5696,0.4768 -0.1743,0 -0.2208,-0.1395 -0.2789,-0.721 -0.2325,-2.3256 -0.3487,-4.7908 -0.3603,-7.3606 -0.0117,-3.2094 0.1162,-4.2909 0.7671,-6.8607 2.1619,-8.4421 8.7637,-15.4889 17.1904,-18.3145 1.8481,-0.6163 4.2192,-1.1396 6.0324,-1.314 1.2204,-0.128 4.8816,-0.0698 6.1253,0.093 z M 31.9917,56.4061 c 0.2092,0.1163 0.4533,0.3372 0.5463,0.4884 0.093,0.1512 1.2204,5.0118 2.5222,10.8027 l 2.3478,10.5352 -0.2208,0.4418 c -0.1162,0.2442 -0.3487,0.5466 -0.5114,0.6629 -0.4068,0.2907 -3.8937,1.0581 -4.3935,0.9651 -0.2092,-0.0349 -0.5463,-0.2093 -0.7439,-0.3954 -0.4068,-0.3604 -0.1627,0.6512 -3.4055,-13.919 l -1.7202,-7.6979 0.2208,-0.4419 c 0.1278,-0.2442 0.3487,-0.5349 0.5114,-0.6512 0.2906,-0.2093 3.4869,-1 4.1262,-1.0116 0.1976,-0.0117 0.5114,0.093 0.7206,0.2209 z m 39.7623,0.1744 c 0.9996,0.221 1.9527,0.5001 2.1154,0.6163 0.1627,0.1163 0.3836,0.407 0.5114,0.6512 l 0.2209,0.4419 -1.7086,7.6398 c -3.3474,15.0121 -3.0104,13.6167 -3.4172,13.9771 -0.1976,0.1745 -0.5346,0.3605 -0.7439,0.3954 -0.4997,0.093 -3.9867,-0.6744 -4.3935,-0.9651 -0.1627,-0.1163 -0.3951,-0.4187 -0.5114,-0.6629 l -0.2208,-0.4418 2.3478,-10.5352 c 1.3018,-5.7909 2.4293,-10.6515 2.5222,-10.8027 0.2209,-0.3372 0.8369,-0.721 1.1856,-0.721 0.1511,0 1.0925,0.1861 2.0921,0.407 z m -46.4339,3.6281 c 0.0349,0.186 0.9647,4.3257 2.0573,9.2212 1.0925,4.8955 1.9991,8.977 2.0107,9.07 0.0233,0.1744 -1.2669,0.5582 -1.9875,0.5698 -0.5114,0.0116 -1.1158,-0.2791 -1.3599,-0.6512 -0.2092,-0.3139 -3.7775,-16.0702 -3.7775,-16.6749 0,-0.4535 0.3604,-1.0582 0.7439,-1.2559 0.2441,-0.1395 1.7551,-0.5465 2.1154,-0.5814 0.0697,-0.0116 0.1627,0.1279 0.1976,0.3024 z m 51.5481,-0.0814 c 0.5346,0.1279 1.0809,0.3139 1.2087,0.4069 0.3836,0.2559 0.6742,0.7791 0.6742,1.1978 0,0.593 -3.5683,16.3726 -3.7775,16.6865 -0.2441,0.3721 -0.8485,0.6628 -1.3599,0.6512 -0.7206,-0.0116 -2.0108,-0.3954 -1.9875,-0.5698 0.0116,-0.093 0.9182,-4.1745 2.0108,-9.07 1.0925,-4.8955 2.0224,-9.0352 2.0572,-9.2212 0.0349,-0.1745 0.093,-0.314 0.1395,-0.314 0.0349,0 0.5114,0.1046 1.0345,0.2326 z" id="path2" /></mask><path d="M 28.372917,0.14521407 C 21.194138,1.0727424 15.005082,4.1185492 10.056359,9.1822821 8.4903942,10.774117 7.6509296,11.814393 6.4232075,13.681954 c -1.7540581,2.632218 -3.1446501,5.790773 -3.9213811,8.899205 -0.7016016,2.795089 -0.8644715,4.261564 -0.851968,7.64583 0,2.632111 0.2881213,7.670837 0.4886097,8.773739 0.062626,0.338459 0.025007,0.401085 -0.3507469,0.589177 -0.664091,0.313344 -1.15270072,0.777054 -1.45332552,1.403742 -0.5888539,1.165743 -0.5888539,1.115621 1.57857682,10.754263 2.2300565,9.939482 2.1548194,9.726382 3.3951529,10.465925 0.9522122,0.576566 1.5409583,0.626688 3.1321458,0.300841 1.002227,-0.2131 1.327967,-0.250719 1.378089,-0.125359 0.112748,0.338459 0.9396008,1.115513 1.4408218,1.35362 0.789234,0.388581 1.904209,0.338459 4.15938,-0.16287 2.167431,-0.488825 2.455552,-0.614185 3.107032,-1.328613 0.626364,-0.689422 0.839356,-1.240872 0.839356,-2.105775 0,-0.927528 -4.8986,-22.849534 -5.261851,-23.563962 -0.363358,-0.701925 -1.190211,-1.378735 -2.017064,-1.61695 -0.613969,-0.175481 -0.789342,-0.175481 -1.653814,-0.0125 l -0.9521038,0.175481 -0.112748,-1.19075 C 9.1793842,31.718475 9.2546212,27.093445 9.4926202,25.814954 10.72045,19.25963 14.541587,13.794812 20.26704,10.360532 24.163414,8.0291541 29.099525,6.8760222 33.659882,7.2269847 41.978751,7.8536731 49.15753,12.654184 52.677934,19.949051 c 1.841691,3.810358 2.392926,6.968913 2.129812,12.158005 -0.07513,1.579331 -0.16287,2.907944 -0.187877,2.958066 -0.03762,0.03762 -0.48861,-0.01261 -1.027342,-0.112855 -0.876975,-0.162978 -1.039845,-0.162978 -1.666209,0.0125 -0.826961,0.238215 -1.653814,0.915025 -2.017172,1.61695 -0.363251,0.714428 -5.261851,22.636434 -5.261851,23.563962 0,0.827284 0.212992,1.391346 0.751723,2.018034 0.65148,0.726932 1.127478,0.940032 3.182161,1.403742 2.305186,0.513941 3.38265,0.564063 4.171992,0.175482 0.501113,-0.238107 1.327966,-1.015161 1.440714,-1.35362 0.05012,-0.12536 0.375862,-0.08774 1.378088,0.125359 1.591189,0.325847 2.180042,0.275725 3.132147,-0.300841 1.22783,-0.739543 1.177708,-0.551558 3.345031,-10.152581 2.154927,-9.563512 2.217552,-9.951986 1.64131,-11.054995 -0.288229,-0.551559 -0.851968,-1.10301 -1.55357,-1.504094 -0.187877,-0.112856 -0.200488,-0.250719 -0.07513,-1.504095 0.48861,-5.088848 0.501113,-10.503544 0.0125,-13.223395 C 60.082203,13.506472 51.763443,4.3566561 40.588046,1.1228645 37.86938,0.34581027 35.839812,0.05747347 32.56991,0.00735137 c -1.929431,-0.025115 -3.30752,0.0125035 -4.196998,0.1378627 z m 7.354152,1.62945333 c 11.037534,1.4413607 20.170644,8.7988536 23.678653,19.0517876 1.490836,4.41193 1.766453,8.197173 1.152592,15.980865 -0.175373,2.243638 -0.175373,2.243638 -0.701601,2.105667 -0.350747,-0.08774 -0.413373,-0.162869 -0.413373,-0.476213 0,-1.015269 -1.115082,-2.343882 -2.267675,-2.682341 -0.363358,-0.112748 -0.73922,-0.200489 -0.826853,-0.200489 -0.137863,0 -0.16287,-0.162977 -0.112748,-0.72704 0.175374,-1.917682 0.212992,-2.657225 0.200381,-4.975992 0,-1.604339 -0.06263,-2.958066 -0.187877,-3.747624 C 55.659714,22.255312 54.131259,18.545198 51.838577,15.436766 50.723495,13.932672 48.004829,11.250439 46.539108,10.210055 43.181466,7.8285551 39.48558,6.3495755 35.476458,5.7855133 33.77263,5.5474063 30.377477,5.5474063 28.610916,5.7981246 18.412846,7.2144781 10.081474,14.922826 8.0894172,24.737056 c -0.5387318,2.632111 -0.6013575,4.499671 -0.300625,9.463161 0.06263,1.140628 0.05012,1.353727 -0.1127477,1.353727 -0.1002442,0 -0.4636025,0.08774 -0.8143494,0.187985 -1.1400893,0.338459 -2.2926821,1.679576 -2.2926821,2.682233 0,0.363574 -0.1754813,0.51394 -0.6139689,0.51394 -0.187877,0 -0.2379991,-0.150366 -0.3006248,-0.777162 C 3.4038088,35.654189 3.2785574,32.996963 3.2660538,30.226989 3.2534428,26.767594 3.3913052,25.601851 4.0929069,22.831878 6.4232075,13.732183 13.539253,6.1364757 22.622348,3.0907767 24.614405,2.4264703 27.170202,1.862408 29.12464,1.6744232 30.440103,1.5364527 34.386491,1.5991861 35.727069,1.7746674 Z M 12.048416,36.681961 c 0.225496,0.125359 0.48861,0.363466 0.588854,0.526444 0.100244,0.162978 1.315463,5.402192 2.718666,11.644172 l 2.530682,11.355835 -0.238,0.476214 c -0.125251,0.263222 -0.375861,0.589177 -0.551235,0.714537 -0.438488,0.313344 -4.196999,1.14052 -4.73573,1.040276 -0.225496,-0.03762 -0.588854,-0.225604 -0.801846,-0.4262 -0.438488,-0.388473 -0.175374,0.701925 -3.6707708,-15.003215 L 6.034842,38.712499 6.2728412,38.236177 c 0.1377549,-0.263221 0.3758619,-0.576565 0.5512353,-0.701925 0.3132363,-0.225603 3.7585105,-1.077894 4.4476085,-1.090398 0.212992,-0.01261 0.551236,0.100244 0.776731,0.238107 z m 42.859574,0.187985 c 1.077464,0.238215 2.104805,0.539055 2.280179,0.664306 0.175373,0.12536 0.41348,0.438704 0.551235,0.701925 l 0.238107,0.476322 -1.841691,8.234899 c -3.608145,16.181462 -3.244894,14.677368 -3.683382,15.065841 -0.212992,0.188093 -0.576242,0.388581 -0.801846,0.4262 -0.538624,0.100244 -4.297243,-0.726932 -4.73573,-1.040276 -0.175374,-0.12536 -0.425876,-0.451315 -0.551236,-0.714537 l -0.237999,-0.476214 2.530682,-11.355835 c 1.403203,-6.24198 2.618529,-11.481194 2.718666,-11.644172 0.238107,-0.363466 0.90209,-0.777162 1.277952,-0.777162 0.16287,0 1.1776,0.200596 2.255063,0.438703 z M 4.8571342,40.780655 c 0.037619,0.200489 1.0398451,4.662649 2.2175529,9.939482 1.1776001,5.276833 2.1548191,9.67626 2.1673231,9.776504 0.02511,0.187985 -1.365585,0.601681 -2.142316,0.614185 -0.5512353,0.0125 -1.2027149,-0.300841 -1.465829,-0.701925 C 5.4083696,60.07055 1.5621178,43.086919 1.5621178,42.435116 c 0,-0.488825 0.3884733,-1.140628 0.8018459,-1.353728 0.2631141,-0.150366 1.8918131,-0.589069 2.2801785,-0.626688 0.075129,-0.0125 0.1753735,0.137863 0.212992,0.325955 z m 55.5634248,-0.08774 c 0.576243,0.137863 1.165097,0.338351 1.302852,0.438595 0.41348,0.275833 0.726716,0.839788 0.726716,1.291102 0,0.639192 -3.846251,17.647938 -4.071747,17.986289 -0.263114,0.401084 -0.914594,0.714428 -1.465829,0.701925 -0.776731,-0.0125 -2.167431,-0.4262 -2.142316,-0.614185 0.0125,-0.100244 0.989723,-4.499671 2.167431,-9.776504 1.1776,-5.276833 2.179934,-9.738993 2.217445,-9.939482 0.03762,-0.188092 0.100244,-0.338459 0.150366,-0.338459 0.03762,0 0.551236,0.112748 1.115082,0.250719 z" fill="#8f8f8f" id="path3" style="stroke-width:1.0779" /></svg>
