<?xml version="1.0" encoding="UTF-8" standalone="no"?>
<svg
   width="104"
   height="104"
   viewBox="0 0 104 104"
   fill="none"
   version="1.1"
   id="svg3"
   sodipodi:docname="tenis.svg"
   inkscape:version="1.3.2 (091e20e, 2023-11-25, custom)"
   xmlns:inkscape="http://www.inkscape.org/namespaces/inkscape"
   xmlns:sodipodi="http://sodipodi.sourceforge.net/DTD/sodipodi-0.dtd"
   xmlns="http://www.w3.org/2000/svg"
   xmlns:svg="http://www.w3.org/2000/svg">
  <sodipodi:namedview
     id="namedview3"
     pagecolor="#ffffff"
     bordercolor="#000000"
     borderopacity="0.25"
     inkscape:showpageshadow="2"
     inkscape:pageopacity="0.0"
     inkscape:pagecheckerboard="0"
     inkscape:deskcolor="#d1d1d1"
     inkscape:zoom="7.8173077"
     inkscape:cx="52"
     inkscape:cy="52.063961"
     inkscape:window-width="1350"
     inkscape:window-height="1032"
     inkscape:window-x="1529"
     inkscape:window-y="94"
     inkscape:window-maximized="0"
     inkscape:current-layer="svg3" />
  <rect
     width="104"
     height="104"
     rx="52"
     fill="white"
     id="rect1" />
  <g
     clip-path="url(#clip0_309_938)"
     id="g3"
     transform="matrix(1.6201146,0,0,1.6201146,-32.252302,-32.253099)">
    <path
       d="m 62.2,20.2 c -1.2625,0.4 -2.25,1.325 -2.6875,2.4875 -0.2125,0.575 -0.2375,0.9625 -0.2375,3.2 0.0125,2.2375 -0.0125,2.675 -0.25,3.5125 -0.4625,1.7125 -1.1,2.675 -2.2625,3.4625 -1.2875,0.875 -2.6375,1.4625 -4.1375,1.825 -1.325,0.3 -1.4625,0.275 -1.6375,-0.35 -0.4,-1.525 -1.725,-3.7375 -2.825,-4.7125 C 46.525,28.1625 43.125,27.35 41.15,27.9375 c -1.05,0.3125 -1.85,1.1875 -2.075,2.25 -0.0375,0.2 -0.3,3.2625 -0.575,6.8 l -0.5125,6.425 -4.4375,10.7 c -2.4375,5.8875 -4.5125,10.8 -4.5875,10.9125 -0.0875,0.1125 -1.6125,1.45 -3.4,2.975 -1.7875,1.5125 -3.525,3.075 -3.85,3.475 -1.5875,1.9 -2.1,4.55 -1.3375,6.9 0.325,0.975 0.725,1.6625 1.9375,3.25 1.3875,1.825 2.125,2.225 4.325,2.3375 C 29.95,84.1375 33.775,83.325 37.075,81.75 39.45,80.625 36.5625,82.7125 69.2625,58.5375 78.4125,51.7625 78.7,51.55 80.25,49.925 81.55,48.5625 82.45,47.3375 83.125,46 83.9875,44.2875 84.1875,43.175 83.8125,42.1125 83.5375,41.35 83.125,40.8625 82,40 81.4625,39.575 80.7375,38.8875 80.4,38.475 79.8,37.75 79.6,37.425 78.0875,34.6625 76.2375,31.2875 73.625,27.875 70.6375,24.9 68.8125,23.0875 66.2125,20.9375 65.3,20.4875 64.3625,20.025 63.125,19.9 62.2,20.2 Z m 1.8,2.05 c 0.9875,0.275 5.3,4.125 7.4875,6.6875 1.7875,2.0875 4.5625,6.05 4.4875,6.3875 -0.025,0.075 -0.9375,0.8125 -2.0375,1.6375 -1.1625,0.8625 -2.1375,1.7 -2.3375,1.9875 -0.475,0.6875 -0.8625,1.6 -0.9625,2.275 l -0.075,0.575 -1.25,0.7 c -5.2625,2.9375 -9.2875,7.0375 -12.2,12.425 l -0.675,1.2375 -1.375,0.825 c -5.1875,3.15 -7.65,5.2625 -11.875,10.2 -6.0375,7.075 -12.375,10.9375 -17.9125,10.9375 -1.0625,0 -2.4625,-0.1875 -2.75,-0.3625 C 22.4375,77.7125 22.3,77.325 22.225,76.9 21.9875,75.5875 22.45,73.8875 23.3375,72.8125 23.65,72.45 29.95,67 30.4375,66.675 c 0.1375,-0.0875 2.475,-1.125 5.1875,-2.3125 2.8625,-1.2375 5.2875,-2.375 5.775,-2.7 1.05,-0.6875 2.075,-1.8125 2.6375,-2.8875 0.2375,-0.4625 2.075,-5.5375 4.075,-11.2625 2.0125,-5.7375 3.6625,-10.45 3.675,-10.4625 0.0125,-0.025 0.4625,-0.125 0.975,-0.2375 1.35,-0.275 2.55,-0.7 3.825,-1.3625 2.0875,-1.075 3.2625,-2.275 4.0125,-4.1 0.6625,-1.6 0.825,-2.625 0.825,-5.4375 0.0125,-2.875 0.05,-2.975 1.075,-3.5125 0.6125,-0.3 0.85,-0.325 1.5,-0.15 z m -19.3,7.925 c 1.45,0.3875 2.4,1.15 3.275,2.6125 0.4375,0.725 1.05,2.1125 0.9625,2.1875 -0.025,0.025 -0.5125,-0.0125 -1.075,-0.0875 -2.9375,-0.4 -4.7125,0.0875 -6.3875,1.7375 -0.475,0.45 -0.85,0.75 -0.85,0.6625 0,-0.8125 0.5375,-6.6625 0.625,-6.8875 0.0625,-0.15 0.25,-0.3375 0.4,-0.4 0.3625,-0.1625 2.2125,-0.05 3.05,0.175 z m 3.375,6.8625 1.3875,0.15 -3.525,10.075 C 44,52.8 42.2625,57.6125 42.0625,57.95 41.55,58.825 40.5375,59.7875 39.65,60.2375 39,60.5625 32.0375,63.625 31.9375,63.625 c -0.0125,0 0.425,-1.1125 0.9875,-2.4625 l 1.025,-2.45 3,-0.85 C 40.1875,56.9375 40.5,56.775 40.5,55.9875 40.5,55.5 40.0125,55 39.5375,55 c -0.2,0 -1.2375,0.25 -2.3125,0.5625 -1.075,0.3125 -2.0125,0.5625 -2.0875,0.5625 -0.0625,0 0.125,-0.575 0.4125,-1.275 l 0.5375,-1.2875 1.8625,-0.525 C 41.9375,51.9 42,51.8625 42,51.0625 42,50.5125 41.5375,50 41.0625,50 40.875,50 39.95,50.225 39,50.5 38.05,50.775 37.2375,51 37.2125,51 c -0.0625,0 0.9,-2.4 1.025,-2.525 0.0375,-0.05 1.125,-0.3875 2.3875,-0.75 2.55,-0.7125 2.875,-0.9 2.875,-1.65 0,-0.325 -0.0875,-0.5 -0.3875,-0.75 C 42.9,45.15 42.65,45 42.5375,45 c -0.15,0 -1.0375,0.2375 -3.0625,0.825 -0.1625,0.05 -0.0875,-0.2125 0.325,-1.2125 0.3,-0.7 0.625,-1.3125 0.7125,-1.3625 0.1,-0.05 1.025,-0.3375 2.05,-0.625 1.425,-0.3875 1.9375,-0.5875 2.1625,-0.825 0.35,-0.3875 0.35,-0.9125 0.0125,-1.35 -0.325,-0.425 -0.8375,-0.425 -2.2125,-0.025 -0.5625,0.1625 -1.025,0.25 -1.025,0.1875 0,-0.325 0.775,-1.7625 1.2,-2.2375 1.275,-1.4 2.3,-1.6625 5.375,-1.3375 z m 30.95,3.1375 c 0.3875,0.4375 1.1375,1.1125 1.6625,1.5125 0.525,0.3875 1.0125,0.8625 1.075,1.05 0.5125,1.3 -1.85,4.9125 -4.8,7.3625 -0.5875,0.4875 -0.9625,0.7125 -1,0.6125 C 75.925,50.6375 75.225,48.925 74.4,46.925 72.7125,42.8375 72.575,42.4125 72.675,41.7 c 0.1625,-1.0625 0.65,-1.6375 2.575,-3.075 l 1.8,-1.3375 0.625,1.05 c 0.35,0.575 0.9625,1.4 1.35,1.8375 z m -6.475,7.85 c 0.8875,2.15 1.6125,3.975 1.625,4.0625 0.0125,0.075 -4.0625,3.1625 -9.05,6.8375 -10.3875,7.6875 -9.3875,7.1875 -8.8125,4.4 1.55,-7.6875 6.225,-14.2875 13,-18.3625 0.7625,-0.4625 1.4375,-0.8375 1.5,-0.8375 0.075,0 0.85,1.7625 1.7375,3.9 z m -17.475,11.75 c -0.7375,2.5625 -1.325,5.6 -1.325,6.875 0,0.3 -0.075,0.6375 -0.15,0.75 -0.1875,0.225 -14.35,10.6875 -15.2875,11.2875 -1.6,1.025 -3.8125,1.975 -5.75,2.475 -1.9625,0.5 -2.9875,0.6375 -5,0.6375 -2.1625,0.0125 -2.55,-0.1 -3.1875,-0.975 l -0.3875,-0.5125 1.85,-0.0875 C 28.0125,80.1375 29.75,79.7375 31.875,78.8375 36.25,77 40.95,73.225 45.1375,68.1875 c 1.8875,-2.275 3.775,-4.1625 5.7125,-5.725 1.4375,-1.15 3.9875,-2.95 4.2,-2.9625 0.05,0 0.0625,0.125 0.025,0.275 z"
       fill="#8f8f8f"
       id="path1" />
    <path
       d="m 67.7501,49.3375 c -0.3,0.3875 -0.3,0.725 0.0125,2.475 0.25,1.45 1.0875,1.9875 1.875,1.2 0.425,-0.425 0.425,-0.4625 0.175,-1.95 C 69.5001,49.2625 69.3376,49 68.4501,49 c -0.325,0 -0.5,0.0875 -0.7,0.3375 z"
       fill="#8f8f8f"
       id="path2" />
    <path
       d="M 63.9,52.125 C 63.3375,52.3625 63.25,52.9 63.525,54.4375 63.8,56 64.0375,56.375 64.7,56.375 c 0.575,0 0.7875,-0.1125 1,-0.525 0.1625,-0.325 0.1625,-0.4875 -0.0625,-1.725 -0.2875,-1.5625 -0.4,-1.8375 -0.8375,-2 -0.375,-0.15 -0.525,-0.15 -0.9,0 z"
       fill="#8f8f8f"
       id="path3" />
  </g>
  <defs
     id="defs3">
    <clipPath
       id="clip0_309_938">
      <rect
         width="64"
         height="64"
         fill="white"
         transform="translate(20 20)"
         id="rect3" />
    </clipPath>
  </defs>
</svg>
